#N canvas 37 52 1372 762 12;
#X obj 10 10 inlet;
#X obj 60 10 inlet;
#X obj 110 10 inlet;
#X obj 160 10 inlet;
#X obj 210 10 inlet;
#X obj 260 10 inlet;
#X obj 310 10 inlet;
#X obj 360 10 inlet;
#X obj 410 10 inlet;
#X obj 460 10 inlet;
#X obj 510 10 inlet;
#X obj 560 10 inlet;
#X obj 250 100 expr ($f1 + $f2 + $f3 + $f4 + $f5 + $f6 + $f7 + $f8
+ $f9 + $f10 + $f11 + $f12) / 12;
#X text 670 100 Y Mean;
#X obj 330 430 3.4825;
#X obj 270 430 -1.2525;
#X obj 270 460 -0.0025;
#X obj 270 490 -1.1525;
#X obj 270 520 0.8975;
#X obj 270 550 0.6075;
#X obj 270 580 -0.9625;
#X obj 270 610 1.7075;
#X obj 270 640 -1.0925;
#X obj 270 670 0.1775;
#X obj 270 700 -1.1925;
#X obj 270 730 -0.6025;
#X obj 10 210 expr $f1 - $f2;
#X obj 120 210 expr $f1 - $f2;
#X obj 230 210 expr $f1 - $f2;
#X obj 340 210 expr $f1 - $f2;
#X obj 450 210 expr $f1 - $f2;
#X obj 560 210 expr $f1 - $f2;
#X obj 670 210 expr $f1 - $f2;
#X obj 780 210 expr $f1 - $f2;
#X obj 890 210 expr $f1 - $f2;
#X obj 1000 210 expr $f1 - $f2;
#X obj 1110 210 expr $f1 - $f2;
#X obj 1220 210 expr $f1 - $f2;
#X text 390 430 X Mean;
#X text 330 400 X - X Mean;
#X obj 270 400 2.8675;
#X obj 10 430 outlet;
#X obj 10 260 expr (2.8675 * $f1 - 1.2525 * $f2 - 0.0025 * $f3 - 1.525
* $f4 + 0.8975 * $f5 + 0.6075 * $f6 - 0.9625 * $f7 + 1.7075 * $f8 -
1.0925 * $f9 + 0.1775 * $f10 - 1.1925 * $f11 - 0.6025 * $f12) / sqrt(19.1489
* ($f1 * $f1 + $f2 * $f2 + $f3 * $f3 + $f4 * $f4 + $f5 * $f5 + $f6
* $f6 + $f7 * $f7 + $f8 * $f8 + $f9 * $f9 + $f10 * $f10 + $f11 * $f11
+ $f12 * $f12));
#X text 590 370 Minor;
#X obj 660 430 3.7092;
#X obj 590 400 2.6208;
#X obj 590 429 -1.0292;
#X obj 590 460 -0.1892;
#X obj 590 490 1.6708;
#X obj 590 520 -1.1092;
#X obj 590 550 -0.1792;
#X obj 590 574 -1.1692;
#X obj 590 603 1.0408;
#X obj 590 630 0.2708;
#X obj 590 660 -1.0192;
#X obj 590 690 -0.3692;
#X obj 590 719 -0.5392;
#X text 430 300 Major;
#X text 270 370 Major;
#X text 920 300 Minor;
#X obj 500 260 expr (2.6208 * $f1 - 1.0292 * $f2 - 0.1892 * $f3 + 1.6708
* $f4 - 1.1092 * $f5 - 0.1792 * $f6 - 1.1692 * $f7 + 1.0408 * $f8 +
0.2708 * $f9 - 1.0192 * $f10 - 0.3692 * $f11 - 0.5392 * $f12) / sqrt(16.0071
* ($f1 * $f1 + $f2 * $f2 + $f3 * $f3 + $f4 * $f4 + $f5 * $f5 + $f6
* $f6 + $f7 * $f7 + $f8 * $f8 + $f9 * $f9 + $f10 * $f10 + $f11 * $f11
+ $f12 * $f12));
#X obj 10 400 +;
#X obj 10 370 max 0.0001;
#X obj 500 370 max 0.0001;
#X connect 0 0 12 0;
#X connect 0 0 26 0;
#X connect 1 0 12 1;
#X connect 1 0 27 0;
#X connect 2 0 12 2;
#X connect 2 0 28 0;
#X connect 3 0 12 3;
#X connect 3 0 29 0;
#X connect 4 0 12 4;
#X connect 4 0 30 0;
#X connect 5 0 12 5;
#X connect 5 0 31 0;
#X connect 6 0 12 6;
#X connect 6 0 32 0;
#X connect 7 0 12 7;
#X connect 7 0 33 0;
#X connect 8 0 12 8;
#X connect 8 0 34 0;
#X connect 9 0 12 9;
#X connect 9 0 35 0;
#X connect 10 0 12 10;
#X connect 10 0 36 0;
#X connect 11 0 12 11;
#X connect 11 0 37 0;
#X connect 12 0 26 1;
#X connect 12 0 27 1;
#X connect 12 0 28 1;
#X connect 12 0 29 1;
#X connect 12 0 30 1;
#X connect 12 0 31 1;
#X connect 12 0 32 1;
#X connect 12 0 33 1;
#X connect 12 0 34 1;
#X connect 12 0 35 1;
#X connect 12 0 36 1;
#X connect 12 0 37 1;
#X connect 26 0 42 0;
#X connect 26 0 60 0;
#X connect 27 0 42 1;
#X connect 27 0 60 1;
#X connect 28 0 42 2;
#X connect 28 0 60 2;
#X connect 29 0 42 3;
#X connect 29 0 60 3;
#X connect 30 0 42 4;
#X connect 30 0 60 4;
#X connect 31 0 42 5;
#X connect 31 0 60 5;
#X connect 32 0 42 6;
#X connect 32 0 60 6;
#X connect 33 0 42 7;
#X connect 33 0 60 7;
#X connect 34 0 42 8;
#X connect 34 0 60 8;
#X connect 35 0 42 9;
#X connect 35 0 60 9;
#X connect 36 0 42 10;
#X connect 36 0 60 10;
#X connect 37 0 42 11;
#X connect 37 0 60 11;
#X connect 42 0 62 0;
#X connect 45 0 46 0;
#X connect 46 0 47 0;
#X connect 47 0 48 0;
#X connect 48 0 49 0;
#X connect 49 0 50 0;
#X connect 50 0 51 0;
#X connect 51 0 52 0;
#X connect 52 0 53 0;
#X connect 53 0 54 0;
#X connect 54 0 55 0;
#X connect 55 0 56 0;
#X connect 60 0 63 0;
#X connect 61 0 41 0;
#X connect 62 0 61 0;
#X connect 63 0 61 1;
