#N canvas 492 450 450 300 12;
#X floatatom 70 210 5 0 0 0 - - -, f 5;
#X obj 10 40 max;
#X obj 10 180 line;
#X msg 10 150 \$1 \, 0 \$2;
#X obj 10 120 pack \$1 \$2;
#X obj 10 10 inlet;
#X obj 10 210 outlet;
#X obj 30 80 expr $f1 * \$1;
#X connect 1 0 4 0;
#X connect 1 0 7 0;
#X connect 2 0 0 0;
#X connect 2 0 1 1;
#X connect 2 0 6 0;
#X connect 3 0 2 0;
#X connect 4 0 3 0;
#X connect 5 0 1 0;
#X connect 7 0 4 1;
