#N canvas 767 320 450 300 12;
#X obj 10 10 inlet;
#X obj 10 210 outlet;
#X text 60 210 duration;
#X text 60 10 pitch class in;
#X obj 30 40 select \$1;
#X text 100 40 if pitch class;
#X obj 10 120 +;
#X obj 50 120 f;
#X floatatom 10 180 5 0 0 0 - - -, f 5;
#X obj 10 150 moses 0;
#X msg 50 90 400;
#X msg 10 90 -40;
#X connect 0 0 4 0;
#X connect 0 0 11 0;
#X connect 4 0 10 0;
#X connect 6 0 7 0;
#X connect 6 0 9 0;
#X connect 7 0 6 1;
#X connect 8 0 1 0;
#X connect 9 1 8 0;
#X connect 10 0 7 0;
#X connect 11 0 6 0;
