#N canvas 0 23 1440 807 12;
#X obj 20 80 pitch 0;
#X floatatom 200 100 5 0 0 0 - - -, f 5;
#X floatatom 130 50 5 0 0 0 - - -, f 5;
#X floatatom 20 190 5 0 0 0 - - -, f 5;
#X obj 20 160 PCD 0;
#X obj 70 160 PCD 1;
#X obj 120 160 PCD 2;
#X obj 170 160 PCD 3;
#X obj 220 160 PCD 4;
#X obj 270 160 PCD 5;
#X obj 321 160 PCD 6;
#X obj 370 160 PCD 7;
#X obj 420 160 PCD 8;
#X obj 470 160 PCD 9;
#X obj 520 160 PCD 10;
#X obj 570 160 PCD 11;
#X floatatom 70 190 5 0 0 0 - - -, f 5;
#X floatatom 120 190 5 0 0 0 - - -, f 5;
#X floatatom 170 190 5 0 0 0 - - -, f 5;
#X floatatom 220 189 5 0 0 0 - - -, f 5;
#X floatatom 270 189 5 0 0 0 - - -, f 5;
#X floatatom 321 189 5 0 0 0 - - -, f 5;
#X floatatom 370 189 5 0 0 0 - - -, f 5;
#X floatatom 420 189 5 0 0 0 - - -, f 5;
#X floatatom 470 189 5 0 0 0 - - -, f 5;
#X floatatom 520 189 5 0 0 0 - - -, f 5;
#X floatatom 570 189 5 0 0 0 - - -, f 5;
#X obj 20 320 KeyCoefficient;
#X obj 20 380 KeyCoefficient;
#X floatatom 20 409 5 0 0 0 - - -, f 5;
#X floatatom 20 349 5 0 0 0 - - -, f 5;
#X obj 20 440 KeyCoefficient;
#X floatatom 20 470 5 0 0 0 - - -, f 5;
#X text 190 320 C Major;
#X text 190 380 C# Major;
#X text 190 440 D Major;
#X obj 20 500 KeyCoefficient;
#X text 190 500 Eb Major;
#X floatatom 20 529 5 0 0 0 - - -, f 5;
#X obj 20 560 KeyCoefficient;
#X text 190 560 E Major;
#X floatatom 20 589 5 0 0 0 - - -, f 5;
#X obj 20 620 KeyCoefficient;
#X text 190 620 F Major;
#X floatatom 20 649 5 0 0 0 - - -, f 5;
#X obj 300 320 KeyCoefficient;
#X text 470 320 F# Major;
#X floatatom 300 349 5 0 0 0 - - -, f 5;
#X obj 300 380 KeyCoefficient;
#X text 470 380 G Major;
#X floatatom 300 409 5 0 0 0 - - -, f 5;
#X obj 300 440 KeyCoefficient;
#X text 470 440 Ab Major;
#X floatatom 300 469 5 0 0 0 - - -, f 5;
#X obj 300 500 KeyCoefficient;
#X text 470 500 A Major;
#X floatatom 300 529 5 0 0 0 - - -, f 5;
#X obj 300 560 KeyCoefficient;
#X text 470 560 Bb Major;
#X floatatom 300 589 5 0 0 0 - - -, f 5;
#X obj 300 620 KeyCoefficient;
#X text 470 620 B Major;
#X floatatom 300 649 5 0 0 0 - - -, f 5;
#X obj 20 700 outlet;
#X obj 80 700 outlet;
#X obj 140 700 outlet;
#X obj 200 700 outlet;
#X obj 260 700 outlet;
#X obj 320 700 outlet;
#X obj 380 700 outlet;
#X obj 440 700 outlet;
#X obj 500 700 outlet;
#X obj 560 700 outlet;
#X obj 620 700 outlet;
#X obj 680 700 outlet;
#X obj 20 20 inlet;
#X obj 80 20 inlet;
#X connect 0 2 1 0;
#X connect 0 2 4 0;
#X connect 0 2 5 0;
#X connect 0 2 6 0;
#X connect 0 2 7 0;
#X connect 0 2 8 0;
#X connect 0 2 9 0;
#X connect 0 2 10 0;
#X connect 0 2 11 0;
#X connect 0 2 12 0;
#X connect 0 2 13 0;
#X connect 0 2 14 0;
#X connect 0 2 15 0;
#X connect 2 0 0 0;
#X connect 4 0 3 0;
#X connect 4 0 27 0;
#X connect 4 0 28 11;
#X connect 4 0 31 10;
#X connect 4 0 36 9;
#X connect 4 0 39 8;
#X connect 4 0 42 7;
#X connect 4 0 45 6;
#X connect 4 0 48 5;
#X connect 4 0 51 4;
#X connect 4 0 54 3;
#X connect 4 0 57 2;
#X connect 4 0 60 1;
#X connect 5 0 16 0;
#X connect 5 0 27 1;
#X connect 5 0 28 0;
#X connect 5 0 31 11;
#X connect 5 0 36 10;
#X connect 5 0 39 9;
#X connect 5 0 42 8;
#X connect 5 0 45 7;
#X connect 5 0 48 6;
#X connect 5 0 51 5;
#X connect 5 0 54 4;
#X connect 5 0 57 3;
#X connect 5 0 60 2;
#X connect 6 0 17 0;
#X connect 6 0 27 2;
#X connect 6 0 28 1;
#X connect 6 0 31 0;
#X connect 6 0 36 11;
#X connect 6 0 39 10;
#X connect 6 0 42 9;
#X connect 6 0 45 8;
#X connect 6 0 48 7;
#X connect 6 0 51 6;
#X connect 6 0 54 5;
#X connect 6 0 57 4;
#X connect 6 0 60 3;
#X connect 7 0 18 0;
#X connect 7 0 27 3;
#X connect 7 0 28 2;
#X connect 7 0 31 1;
#X connect 7 0 36 0;
#X connect 7 0 39 11;
#X connect 7 0 42 10;
#X connect 7 0 45 9;
#X connect 7 0 48 8;
#X connect 7 0 51 7;
#X connect 7 0 54 6;
#X connect 7 0 57 5;
#X connect 7 0 60 4;
#X connect 8 0 19 0;
#X connect 8 0 27 4;
#X connect 8 0 28 3;
#X connect 8 0 31 2;
#X connect 8 0 36 1;
#X connect 8 0 39 0;
#X connect 8 0 42 11;
#X connect 8 0 45 10;
#X connect 8 0 48 9;
#X connect 8 0 51 8;
#X connect 8 0 54 7;
#X connect 8 0 57 6;
#X connect 8 0 60 5;
#X connect 9 0 20 0;
#X connect 9 0 27 5;
#X connect 9 0 28 4;
#X connect 9 0 31 3;
#X connect 9 0 36 2;
#X connect 9 0 39 1;
#X connect 9 0 42 0;
#X connect 9 0 45 11;
#X connect 9 0 48 10;
#X connect 9 0 51 9;
#X connect 9 0 54 8;
#X connect 9 0 57 7;
#X connect 9 0 60 6;
#X connect 10 0 21 0;
#X connect 10 0 27 6;
#X connect 10 0 28 5;
#X connect 10 0 31 4;
#X connect 10 0 36 3;
#X connect 10 0 39 2;
#X connect 10 0 42 1;
#X connect 10 0 45 0;
#X connect 10 0 48 11;
#X connect 10 0 51 10;
#X connect 10 0 54 9;
#X connect 10 0 57 8;
#X connect 10 0 60 7;
#X connect 11 0 22 0;
#X connect 11 0 27 7;
#X connect 11 0 28 6;
#X connect 11 0 31 5;
#X connect 11 0 36 4;
#X connect 11 0 39 3;
#X connect 11 0 42 2;
#X connect 11 0 45 1;
#X connect 11 0 48 0;
#X connect 11 0 51 11;
#X connect 11 0 54 10;
#X connect 11 0 57 9;
#X connect 11 0 60 8;
#X connect 12 0 23 0;
#X connect 12 0 27 8;
#X connect 12 0 28 7;
#X connect 12 0 31 6;
#X connect 12 0 36 5;
#X connect 12 0 39 4;
#X connect 12 0 42 3;
#X connect 12 0 45 2;
#X connect 12 0 48 1;
#X connect 12 0 51 0;
#X connect 12 0 54 11;
#X connect 12 0 57 10;
#X connect 12 0 60 9;
#X connect 13 0 24 0;
#X connect 13 0 27 9;
#X connect 13 0 28 8;
#X connect 13 0 31 7;
#X connect 13 0 36 6;
#X connect 13 0 39 5;
#X connect 13 0 42 4;
#X connect 13 0 45 3;
#X connect 13 0 48 2;
#X connect 13 0 51 1;
#X connect 13 0 54 0;
#X connect 13 0 57 11;
#X connect 13 0 60 10;
#X connect 14 0 25 0;
#X connect 14 0 27 10;
#X connect 14 0 28 9;
#X connect 14 0 31 8;
#X connect 14 0 36 7;
#X connect 14 0 39 6;
#X connect 14 0 42 5;
#X connect 14 0 45 4;
#X connect 14 0 48 3;
#X connect 14 0 51 2;
#X connect 14 0 54 1;
#X connect 14 0 57 0;
#X connect 14 0 60 11;
#X connect 15 0 26 0;
#X connect 15 0 27 11;
#X connect 15 0 28 10;
#X connect 15 0 31 9;
#X connect 15 0 36 8;
#X connect 15 0 39 7;
#X connect 15 0 42 6;
#X connect 15 0 45 5;
#X connect 15 0 48 4;
#X connect 15 0 51 3;
#X connect 15 0 54 2;
#X connect 15 0 57 1;
#X connect 15 0 60 0;
#X connect 27 0 30 0;
#X connect 27 0 63 0;
#X connect 28 0 29 0;
#X connect 28 0 64 0;
#X connect 31 0 32 0;
#X connect 31 0 65 0;
#X connect 36 0 38 0;
#X connect 36 0 66 0;
#X connect 39 0 41 0;
#X connect 39 0 67 0;
#X connect 42 0 44 0;
#X connect 42 0 68 0;
#X connect 45 0 47 0;
#X connect 45 0 69 0;
#X connect 48 0 50 0;
#X connect 48 0 70 0;
#X connect 51 0 53 0;
#X connect 51 0 71 0;
#X connect 54 0 56 0;
#X connect 54 0 72 0;
#X connect 57 0 59 0;
#X connect 57 0 73 0;
#X connect 60 0 62 0;
#X connect 60 0 74 0;
#X connect 75 0 0 0;
#X connect 76 0 0 1;
