#N canvas 395 286 679 757 12;
#X obj 10 40 notein;
#X obj 50 80 stripnote;
#X obj 210 120 PitchClassKeyCoefficients;
#X floatatom 220 60 5 0 0 0 - - -, f 5;
#X floatatom 280 80 5 0 1 0 - - -, f 5;
#X floatatom 200 170 5 0 0 0 - - -, f 5;
#X floatatom 240 170 5 0 0 0 - - -, f 5;
#X floatatom 280 170 5 0 0 0 - - -, f 5;
#X floatatom 320 170 5 0 0 0 - - -, f 5;
#X floatatom 360 170 5 0 0 0 - - -, f 5;
#X floatatom 400 170 5 0 0 0 - - -, f 5;
#X floatatom 440 170 5 0 0 0 - - -, f 5;
#X floatatom 480 170 5 0 0 0 - - -, f 5;
#X floatatom 520 170 5 0 0 0 - - -, f 5;
#X floatatom 560 170 5 0 0 0 - - -, f 5;
#X floatatom 600 170 5 0 0 0 - - -, f 5;
#X floatatom 640 170 5 0 0 0 - - -, f 5;
#X obj 10 10 import mrpeach;
#X obj 10 390 udpsend;
#X msg 160 370 connect localhost 9001;
#X msg 70 360 disconnect;
#X msg 10 150 send /midi \$1 \$2;
#X obj 10 120 pack;
#X msg 140 210 send /key 1 \$1;
#X msg 250 210 send /key 2 \$1;
#X msg 360 210 send /key 3 \$1;
#X msg 470 210 send /key 4 \$1;
#X msg 580 210 send /key 5 \$1;
#X msg 690 210 send /key 6 \$1;
#X msg 800 210 send /key 7 \$1;
#X msg 910 210 send /key 8 \$1;
#X msg 1020 210 send /key 9 \$1;
#X msg 1130 210 send /key 10 \$1;
#X msg 1250 210 send /key 11 \$1;
#X obj 160 330 loadbang;
#X obj 850 430 udpsend;
#X obj 850 400 packOSC;
#X msg 710 370 connect localhost 9001;
#X msg 710 400 disconnect;
#X msg 850 340 send /test \$1;
#X floatatom 850 310 5 0 0 0 - - -, f 5;
#X obj 850 280 counter;
#X obj 760 270 bng 15 250 50 0 empty empty empty 17 7 0 10 #fcfcfc
#000000 #000000;
#X obj 70 420 print;
#X msg 30 200 send /key 0 \$1;
#X obj 30 310 packOSC;
#X obj 460 300 MaxAndDecay;
#X msg 430 330 send /max \$1;
#X msg 30 260 send \$1 \$2 \$3;
#X obj 410 80 MaxAndDecay;
#X connect 0 0 1 0;
#X connect 0 1 1 1;
#X connect 1 0 3 0;
#X connect 1 1 4 0;
#X connect 1 1 46 0;
#X connect 2 0 5 0;
#X connect 2 0 44 0;
#X connect 2 1 6 0;
#X connect 2 1 23 0;
#X connect 2 2 7 0;
#X connect 2 2 24 0;
#X connect 2 3 8 0;
#X connect 2 3 25 0;
#X connect 2 4 9 0;
#X connect 2 4 26 0;
#X connect 2 5 10 0;
#X connect 2 5 27 0;
#X connect 2 6 11 0;
#X connect 2 6 28 0;
#X connect 2 7 12 0;
#X connect 2 7 29 0;
#X connect 2 8 13 0;
#X connect 2 8 30 0;
#X connect 2 9 14 0;
#X connect 2 9 31 0;
#X connect 2 10 15 0;
#X connect 2 10 32 0;
#X connect 2 11 16 0;
#X connect 2 11 33 0;
#X connect 3 0 2 0;
#X connect 3 0 22 0;
#X connect 3 0 49 0;
#X connect 4 0 2 1;
#X connect 4 0 22 1;
#X connect 19 0 18 0;
#X connect 20 0 18 0;
#X connect 21 0 48 0;
#X connect 22 0 21 0;
#X connect 23 0 48 0;
#X connect 24 0 48 0;
#X connect 25 0 48 0;
#X connect 26 0 48 0;
#X connect 27 0 48 0;
#X connect 28 0 48 0;
#X connect 29 0 48 0;
#X connect 30 0 48 0;
#X connect 31 0 48 0;
#X connect 32 0 48 0;
#X connect 33 0 48 0;
#X connect 34 0 19 0;
#X connect 36 0 35 0;
#X connect 37 0 35 0;
#X connect 38 0 35 0;
#X connect 39 0 36 0;
#X connect 40 0 39 0;
#X connect 41 0 40 0;
#X connect 42 0 41 0;
#X connect 42 0 37 0;
#X connect 44 0 48 0;
#X connect 45 0 18 0;
#X connect 46 0 47 0;
#X connect 47 0 45 0;
#X connect 48 0 45 0;
